<mxfile host="app.diagrams.net" modified="2020-05-20T13:41:24.160Z" agent="5.0 (Windows NT 10.0; Win64; x64) AppleWebKit/537.36 (KHTML, like Gecko) Chrome/81.0.4044.92 Safari/537.36" etag="g2CGXTZl87mfJuoe3zm1" version="13.1.1" type="github">
  <diagram id="4cYqGiaPcVjM6RiAfJuP" name="Page-1">
    <mxGraphModel dx="1422" dy="5394" grid="1" gridSize="10" guides="1" tooltips="1" connect="1" arrows="1" fold="1" page="1" pageScale="1" pageWidth="3300" pageHeight="4681" math="0" shadow="0">
      <root>
        <mxCell id="0" />
        <mxCell id="1" parent="0" />
        <mxCell id="2IJ3CQFTHkG_83qPiviW-127" value="" style="group" vertex="1" connectable="0" parent="1">
          <mxGeometry x="480" y="-30" width="490" height="600" as="geometry" />
        </mxCell>
        <mxCell id="2IJ3CQFTHkG_83qPiviW-125" value="" style="group;rotation=-90;" vertex="1" connectable="0" parent="2IJ3CQFTHkG_83qPiviW-127">
          <mxGeometry x="-111.36363636363637" y="93.74999999999999" width="712.7272727272727" height="412.5" as="geometry" />
        </mxCell>
        <mxCell id="2IJ3CQFTHkG_83qPiviW-74" value="" style="rounded=1;whiteSpace=wrap;html=1;fillColor=none;strokeColor=#000000;dashed=1;fontStyle=0;fontFamily=Times New Roman;rotation=0;" vertex="1" parent="2IJ3CQFTHkG_83qPiviW-125">
          <mxGeometry x="378.6363636363637" y="31.25" width="222.72727272727275" height="312.5" as="geometry" />
        </mxCell>
        <mxCell id="2IJ3CQFTHkG_83qPiviW-41" value="" style="rounded=1;whiteSpace=wrap;html=1;fillColor=none;strokeColor=#000000;dashed=1;fontStyle=0;fontFamily=Times New Roman;rotation=0;" vertex="1" parent="2IJ3CQFTHkG_83qPiviW-125">
          <mxGeometry x="111.36363636363637" y="31.25" width="222.72727272727275" height="312.5" as="geometry" />
        </mxCell>
        <mxCell id="2IJ3CQFTHkG_83qPiviW-23" value="" style="ellipse;whiteSpace=wrap;html=1;aspect=fixed;fontStyle=0;fontFamily=Times New Roman;strokeColor=#000000;rotation=0;" vertex="1" parent="2IJ3CQFTHkG_83qPiviW-125">
          <mxGeometry x="334.0909090909091" y="-6.25" width="37.5" height="37.5" as="geometry" />
        </mxCell>
        <mxCell id="2IJ3CQFTHkG_83qPiviW-38" style="edgeStyle=orthogonalEdgeStyle;rounded=0;orthogonalLoop=1;jettySize=auto;html=1;exitX=0.5;exitY=0;exitDx=0;exitDy=0;entryX=0;entryY=0.5;entryDx=0;entryDy=0;fontStyle=0;fontFamily=Times New Roman;strokeColor=#000000;" edge="1" parent="2IJ3CQFTHkG_83qPiviW-125" source="2IJ3CQFTHkG_83qPiviW-1" target="2IJ3CQFTHkG_83qPiviW-23">
          <mxGeometry relative="1" as="geometry" />
        </mxCell>
        <mxCell id="2IJ3CQFTHkG_83qPiviW-1" value="Softmax" style="rounded=1;whiteSpace=wrap;html=1;fontStyle=0;fontFamily=Times New Roman;fillColor=#f8cecc;strokeColor=#000000;rotation=0;" vertex="1" parent="2IJ3CQFTHkG_83qPiviW-125">
          <mxGeometry x="133.63636363636365" y="56.25" width="178.1818181818182" height="25" as="geometry" />
        </mxCell>
        <mxCell id="2IJ3CQFTHkG_83qPiviW-7" value="LSTM" style="rounded=1;whiteSpace=wrap;html=1;fontStyle=0;fontFamily=Times New Roman;fillColor=#fff2cc;strokeColor=#000000;rotation=0;" vertex="1" parent="2IJ3CQFTHkG_83qPiviW-125">
          <mxGeometry x="133.63636363636365" y="281.25" width="178.1818181818182" height="37.5" as="geometry" />
        </mxCell>
        <mxCell id="2IJ3CQFTHkG_83qPiviW-9" value="&lt;span&gt;Flatten&lt;/span&gt;" style="rounded=1;whiteSpace=wrap;html=1;fontStyle=0;fontFamily=Times New Roman;fillColor=#B5DFE8;strokeColor=#000000;rotation=0;" vertex="1" parent="2IJ3CQFTHkG_83qPiviW-125">
          <mxGeometry x="133.63636363636365" y="206.25" width="178.1818181818182" height="25" as="geometry" />
        </mxCell>
        <mxCell id="2IJ3CQFTHkG_83qPiviW-30" style="edgeStyle=orthogonalEdgeStyle;rounded=0;orthogonalLoop=1;jettySize=auto;html=1;exitX=0.5;exitY=0;exitDx=0;exitDy=0;entryX=0.5;entryY=1;entryDx=0;entryDy=0;fontStyle=0;fontFamily=Times New Roman;strokeColor=#000000;" edge="1" parent="2IJ3CQFTHkG_83qPiviW-125" source="2IJ3CQFTHkG_83qPiviW-17" target="2IJ3CQFTHkG_83qPiviW-7">
          <mxGeometry relative="1" as="geometry" />
        </mxCell>
        <mxCell id="2IJ3CQFTHkG_83qPiviW-17" value="Emmebed Encoder" style="rounded=1;whiteSpace=wrap;html=1;fontStyle=0;fontFamily=Times New Roman;fillColor=#ffe6cc;strokeColor=#000000;rotation=0;" vertex="1" parent="2IJ3CQFTHkG_83qPiviW-125">
          <mxGeometry x="133.63636363636365" y="356.25" width="178.1818181818182" height="37.5" as="geometry" />
        </mxCell>
        <mxCell id="2IJ3CQFTHkG_83qPiviW-29" style="edgeStyle=orthogonalEdgeStyle;rounded=0;orthogonalLoop=1;jettySize=auto;html=1;exitX=0.5;exitY=0;exitDx=0;exitDy=0;entryX=0.5;entryY=1;entryDx=0;entryDy=0;fontStyle=0;fontFamily=Times New Roman;strokeColor=#000000;" edge="1" parent="2IJ3CQFTHkG_83qPiviW-125" source="2IJ3CQFTHkG_83qPiviW-18" target="2IJ3CQFTHkG_83qPiviW-17">
          <mxGeometry relative="1" as="geometry" />
        </mxCell>
        <mxCell id="2IJ3CQFTHkG_83qPiviW-18" value="29-channel data&lt;br&gt;(Pressure sensors)" style="rounded=1;whiteSpace=wrap;html=1;fontStyle=0;fontFamily=Times New Roman;fillColor=#dae8fc;strokeColor=#000000;rotation=0;" vertex="1" parent="2IJ3CQFTHkG_83qPiviW-125">
          <mxGeometry x="133.63636363636365" y="418.75" width="178.1818181818182" height="50" as="geometry" />
        </mxCell>
        <mxCell id="2IJ3CQFTHkG_83qPiviW-19" value="6-channel data&lt;br&gt;(Tri-axial accelerometer)" style="rounded=1;whiteSpace=wrap;html=1;fontStyle=0;fontFamily=Times New Roman;fillColor=#dae8fc;strokeColor=#000000;rotation=0;" vertex="1" parent="2IJ3CQFTHkG_83qPiviW-125">
          <mxGeometry x="390.51515151515156" y="356.25" width="200.45454545454547" height="50" as="geometry" />
        </mxCell>
        <mxCell id="2IJ3CQFTHkG_83qPiviW-20" value="Raw data" style="rounded=1;whiteSpace=wrap;html=1;fontStyle=0;fontFamily=Times New Roman;fillColor=#dae8fc;strokeColor=#000000;rotation=0;" vertex="1" parent="2IJ3CQFTHkG_83qPiviW-125">
          <mxGeometry x="133.63636363636365" y="481.25" width="445.4545454545455" height="25" as="geometry" />
        </mxCell>
        <mxCell id="2IJ3CQFTHkG_83qPiviW-21" value="Softmax" style="rounded=1;whiteSpace=wrap;html=1;fontStyle=0;fontFamily=Times New Roman;fillColor=#f8cecc;strokeColor=#000000;rotation=0;" vertex="1" parent="2IJ3CQFTHkG_83qPiviW-125">
          <mxGeometry x="267.2727272727273" y="-43.75" width="178.1818181818182" height="25" as="geometry" />
        </mxCell>
        <mxCell id="2IJ3CQFTHkG_83qPiviW-24" style="edgeStyle=orthogonalEdgeStyle;rounded=0;orthogonalLoop=1;jettySize=auto;html=1;exitX=0.5;exitY=0;exitDx=0;exitDy=0;entryX=0.5;entryY=1;entryDx=0;entryDy=0;fontStyle=0;fontFamily=Times New Roman;strokeColor=#000000;" edge="1" parent="2IJ3CQFTHkG_83qPiviW-125" source="2IJ3CQFTHkG_83qPiviW-23" target="2IJ3CQFTHkG_83qPiviW-21">
          <mxGeometry relative="1" as="geometry" />
        </mxCell>
        <mxCell id="2IJ3CQFTHkG_83qPiviW-22" value="" style="ellipse;whiteSpace=wrap;html=1;aspect=fixed;fillColor=#000000;fontStyle=0;fontFamily=Times New Roman;strokeColor=#000000;rotation=0;" vertex="1" parent="2IJ3CQFTHkG_83qPiviW-125">
          <mxGeometry x="348.93939393939394" y="6.25" width="12.5" height="12.5" as="geometry" />
        </mxCell>
        <mxCell id="2IJ3CQFTHkG_83qPiviW-117" style="edgeStyle=orthogonalEdgeStyle;rounded=0;jumpSize=6;orthogonalLoop=1;jettySize=auto;html=1;exitX=0.5;exitY=0;exitDx=0;exitDy=0;entryX=0.5;entryY=1;entryDx=0;entryDy=0;strokeColor=#000000;fontFamily=Times New Roman;" edge="1" parent="2IJ3CQFTHkG_83qPiviW-125" source="2IJ3CQFTHkG_83qPiviW-25" target="2IJ3CQFTHkG_83qPiviW-19">
          <mxGeometry relative="1" as="geometry" />
        </mxCell>
        <mxCell id="2IJ3CQFTHkG_83qPiviW-118" style="edgeStyle=orthogonalEdgeStyle;rounded=0;jumpSize=6;orthogonalLoop=1;jettySize=auto;html=1;exitX=0;exitY=0.5;exitDx=0;exitDy=0;entryX=1;entryY=0.5;entryDx=0;entryDy=0;strokeColor=#000000;fontFamily=Times New Roman;" edge="1" parent="2IJ3CQFTHkG_83qPiviW-125" source="2IJ3CQFTHkG_83qPiviW-25" target="2IJ3CQFTHkG_83qPiviW-18">
          <mxGeometry relative="1" as="geometry" />
        </mxCell>
        <mxCell id="2IJ3CQFTHkG_83qPiviW-25" value="Preprocessing" style="rounded=1;whiteSpace=wrap;html=1;fontStyle=0;fontFamily=Times New Roman;fillColor=#f5f5f5;strokeColor=#000000;fontColor=#333333;rotation=0;" vertex="1" parent="2IJ3CQFTHkG_83qPiviW-125">
          <mxGeometry x="393.4848484848485" y="431.25" width="193.03030303030303" height="25" as="geometry" />
        </mxCell>
        <mxCell id="2IJ3CQFTHkG_83qPiviW-120" style="edgeStyle=orthogonalEdgeStyle;rounded=0;jumpSize=6;orthogonalLoop=1;jettySize=auto;html=1;exitX=0.75;exitY=0;exitDx=0;exitDy=0;entryX=0.5;entryY=1;entryDx=0;entryDy=0;strokeColor=#000000;fontFamily=Times New Roman;" edge="1" parent="2IJ3CQFTHkG_83qPiviW-125" source="2IJ3CQFTHkG_83qPiviW-20" target="2IJ3CQFTHkG_83qPiviW-25">
          <mxGeometry relative="1" as="geometry" />
        </mxCell>
        <mxCell id="2IJ3CQFTHkG_83qPiviW-53" style="edgeStyle=orthogonalEdgeStyle;rounded=0;orthogonalLoop=1;jettySize=auto;html=1;exitX=0.5;exitY=0;exitDx=0;exitDy=0;entryX=0.5;entryY=1;entryDx=0;entryDy=0;fontStyle=0;fontFamily=Times New Roman;strokeColor=#000000;" edge="1" parent="2IJ3CQFTHkG_83qPiviW-125" source="2IJ3CQFTHkG_83qPiviW-46" target="2IJ3CQFTHkG_83qPiviW-1">
          <mxGeometry relative="1" as="geometry" />
        </mxCell>
        <mxCell id="2IJ3CQFTHkG_83qPiviW-46" value="&lt;span&gt;FC&lt;/span&gt;" style="rounded=1;whiteSpace=wrap;html=1;fontStyle=0;fontFamily=Times New Roman;fillColor=#e1d5e7;strokeColor=#000000;rotation=0;" vertex="1" parent="2IJ3CQFTHkG_83qPiviW-125">
          <mxGeometry x="133.63636363636365" y="93.75" width="178.1818181818182" height="25" as="geometry" />
        </mxCell>
        <mxCell id="2IJ3CQFTHkG_83qPiviW-54" style="edgeStyle=orthogonalEdgeStyle;rounded=0;orthogonalLoop=1;jettySize=auto;html=1;exitX=0.5;exitY=0;exitDx=0;exitDy=0;entryX=0.5;entryY=1;entryDx=0;entryDy=0;fontStyle=0;fontFamily=Times New Roman;strokeColor=#000000;" edge="1" parent="2IJ3CQFTHkG_83qPiviW-125" source="2IJ3CQFTHkG_83qPiviW-48" target="2IJ3CQFTHkG_83qPiviW-46">
          <mxGeometry relative="1" as="geometry" />
        </mxCell>
        <mxCell id="2IJ3CQFTHkG_83qPiviW-48" value="&lt;span&gt;Relu&lt;/span&gt;" style="rounded=1;whiteSpace=wrap;html=1;fontStyle=0;fontFamily=Times New Roman;fillColor=#bac8d3;strokeColor=#000000;rotation=0;" vertex="1" parent="2IJ3CQFTHkG_83qPiviW-125">
          <mxGeometry x="133.63636363636365" y="131.25" width="178.1818181818182" height="25" as="geometry" />
        </mxCell>
        <mxCell id="2IJ3CQFTHkG_83qPiviW-55" style="edgeStyle=orthogonalEdgeStyle;rounded=0;orthogonalLoop=1;jettySize=auto;html=1;exitX=0.5;exitY=0;exitDx=0;exitDy=0;entryX=0.5;entryY=1;entryDx=0;entryDy=0;fontStyle=0;fontFamily=Times New Roman;strokeColor=#000000;" edge="1" parent="2IJ3CQFTHkG_83qPiviW-125" source="2IJ3CQFTHkG_83qPiviW-49" target="2IJ3CQFTHkG_83qPiviW-48">
          <mxGeometry relative="1" as="geometry" />
        </mxCell>
        <mxCell id="2IJ3CQFTHkG_83qPiviW-49" value="&lt;span&gt;FC&lt;/span&gt;" style="rounded=1;whiteSpace=wrap;html=1;fontStyle=0;fontFamily=Times New Roman;fillColor=#e1d5e7;strokeColor=#000000;rotation=0;" vertex="1" parent="2IJ3CQFTHkG_83qPiviW-125">
          <mxGeometry x="133.63636363636365" y="168.75" width="178.1818181818182" height="25" as="geometry" />
        </mxCell>
        <mxCell id="2IJ3CQFTHkG_83qPiviW-88" style="edgeStyle=orthogonalEdgeStyle;rounded=0;jumpSize=6;orthogonalLoop=1;jettySize=auto;html=1;exitX=0.5;exitY=0;exitDx=0;exitDy=0;entryX=0.5;entryY=1;entryDx=0;entryDy=0;fontStyle=0;fontFamily=Times New Roman;strokeColor=#000000;" edge="1" parent="2IJ3CQFTHkG_83qPiviW-125" source="2IJ3CQFTHkG_83qPiviW-9" target="2IJ3CQFTHkG_83qPiviW-49">
          <mxGeometry relative="1" as="geometry" />
        </mxCell>
        <mxCell id="2IJ3CQFTHkG_83qPiviW-57" style="edgeStyle=orthogonalEdgeStyle;rounded=0;orthogonalLoop=1;jettySize=auto;html=1;exitX=0.5;exitY=0;exitDx=0;exitDy=0;entryX=0.5;entryY=1;entryDx=0;entryDy=0;fontStyle=0;fontFamily=Times New Roman;strokeColor=#000000;" edge="1" parent="2IJ3CQFTHkG_83qPiviW-125" source="2IJ3CQFTHkG_83qPiviW-56" target="2IJ3CQFTHkG_83qPiviW-9">
          <mxGeometry relative="1" as="geometry" />
        </mxCell>
        <mxCell id="2IJ3CQFTHkG_83qPiviW-56" value="States" style="rounded=1;whiteSpace=wrap;html=1;fontStyle=0;fontFamily=Times New Roman;fillColor=#d5e8d4;strokeColor=#000000;rotation=0;" vertex="1" parent="2IJ3CQFTHkG_83qPiviW-125">
          <mxGeometry x="133.63636363636365" y="243.75" width="178.1818181818182" height="25" as="geometry" />
        </mxCell>
        <mxCell id="2IJ3CQFTHkG_83qPiviW-72" style="edgeStyle=orthogonalEdgeStyle;rounded=0;orthogonalLoop=1;jettySize=auto;html=1;exitX=0.5;exitY=0;exitDx=0;exitDy=0;entryX=1;entryY=0.5;entryDx=0;entryDy=0;fontStyle=0;fontFamily=Times New Roman;strokeColor=#000000;" edge="1" parent="2IJ3CQFTHkG_83qPiviW-125" source="2IJ3CQFTHkG_83qPiviW-59" target="2IJ3CQFTHkG_83qPiviW-23">
          <mxGeometry relative="1" as="geometry" />
        </mxCell>
        <mxCell id="2IJ3CQFTHkG_83qPiviW-59" value="Softmax" style="rounded=1;whiteSpace=wrap;html=1;fontStyle=0;fontFamily=Times New Roman;fillColor=#f8cecc;strokeColor=#000000;rotation=0;" vertex="1" parent="2IJ3CQFTHkG_83qPiviW-125">
          <mxGeometry x="400.90909090909093" y="56.25" width="178.1818181818182" height="25" as="geometry" />
        </mxCell>
        <mxCell id="2IJ3CQFTHkG_83qPiviW-61" value="LSTM" style="rounded=1;whiteSpace=wrap;html=1;fontStyle=0;fontFamily=Times New Roman;fillColor=#fff2cc;strokeColor=#000000;rotation=0;" vertex="1" parent="2IJ3CQFTHkG_83qPiviW-125">
          <mxGeometry x="400.90909090909093" y="281.25" width="178.1818181818182" height="37.5" as="geometry" />
        </mxCell>
        <mxCell id="2IJ3CQFTHkG_83qPiviW-58" style="edgeStyle=orthogonalEdgeStyle;rounded=0;orthogonalLoop=1;jettySize=auto;html=1;exitX=0.5;exitY=0;exitDx=0;exitDy=0;entryX=0.5;entryY=1;entryDx=0;entryDy=0;fontStyle=0;fontFamily=Times New Roman;strokeColor=#000000;" edge="1" parent="2IJ3CQFTHkG_83qPiviW-125" source="2IJ3CQFTHkG_83qPiviW-7" target="2IJ3CQFTHkG_83qPiviW-56">
          <mxGeometry relative="1" as="geometry" />
        </mxCell>
        <mxCell id="2IJ3CQFTHkG_83qPiviW-63" value="&lt;span&gt;Flatten&lt;/span&gt;" style="rounded=1;whiteSpace=wrap;html=1;fontStyle=0;fontFamily=Times New Roman;fillColor=#B5DFE8;strokeColor=#000000;rotation=0;" vertex="1" parent="2IJ3CQFTHkG_83qPiviW-125">
          <mxGeometry x="400.90909090909093" y="206.25" width="178.1818181818182" height="25" as="geometry" />
        </mxCell>
        <mxCell id="2IJ3CQFTHkG_83qPiviW-73" style="edgeStyle=orthogonalEdgeStyle;rounded=0;orthogonalLoop=1;jettySize=auto;html=1;exitX=0.5;exitY=0;exitDx=0;exitDy=0;entryX=0.5;entryY=1;entryDx=0;entryDy=0;fontStyle=0;fontFamily=Times New Roman;strokeColor=#000000;" edge="1" parent="2IJ3CQFTHkG_83qPiviW-125" source="2IJ3CQFTHkG_83qPiviW-19" target="2IJ3CQFTHkG_83qPiviW-61">
          <mxGeometry relative="1" as="geometry" />
        </mxCell>
        <mxCell id="2IJ3CQFTHkG_83qPiviW-64" style="edgeStyle=orthogonalEdgeStyle;rounded=0;orthogonalLoop=1;jettySize=auto;html=1;exitX=0.5;exitY=0;exitDx=0;exitDy=0;entryX=0.5;entryY=1;entryDx=0;entryDy=0;fontStyle=0;fontFamily=Times New Roman;strokeColor=#000000;" edge="1" parent="2IJ3CQFTHkG_83qPiviW-125" source="2IJ3CQFTHkG_83qPiviW-65" target="2IJ3CQFTHkG_83qPiviW-59">
          <mxGeometry relative="1" as="geometry" />
        </mxCell>
        <mxCell id="2IJ3CQFTHkG_83qPiviW-65" value="&lt;span&gt;FC&lt;/span&gt;" style="rounded=1;whiteSpace=wrap;html=1;fontStyle=0;fontFamily=Times New Roman;fillColor=#e1d5e7;strokeColor=#000000;rotation=0;" vertex="1" parent="2IJ3CQFTHkG_83qPiviW-125">
          <mxGeometry x="400.90909090909093" y="93.75" width="178.1818181818182" height="25" as="geometry" />
        </mxCell>
        <mxCell id="2IJ3CQFTHkG_83qPiviW-66" style="edgeStyle=orthogonalEdgeStyle;rounded=0;orthogonalLoop=1;jettySize=auto;html=1;exitX=0.5;exitY=0;exitDx=0;exitDy=0;entryX=0.5;entryY=1;entryDx=0;entryDy=0;fontStyle=0;fontFamily=Times New Roman;strokeColor=#000000;" edge="1" parent="2IJ3CQFTHkG_83qPiviW-125" source="2IJ3CQFTHkG_83qPiviW-67" target="2IJ3CQFTHkG_83qPiviW-65">
          <mxGeometry relative="1" as="geometry" />
        </mxCell>
        <mxCell id="2IJ3CQFTHkG_83qPiviW-67" value="&lt;span&gt;Relu&lt;/span&gt;" style="rounded=1;whiteSpace=wrap;html=1;fontStyle=0;fontFamily=Times New Roman;fillColor=#bac8d3;strokeColor=#000000;rotation=0;" vertex="1" parent="2IJ3CQFTHkG_83qPiviW-125">
          <mxGeometry x="400.90909090909093" y="131.25" width="178.1818181818182" height="25" as="geometry" />
        </mxCell>
        <mxCell id="2IJ3CQFTHkG_83qPiviW-68" style="edgeStyle=orthogonalEdgeStyle;rounded=0;orthogonalLoop=1;jettySize=auto;html=1;exitX=0.5;exitY=0;exitDx=0;exitDy=0;entryX=0.5;entryY=1;entryDx=0;entryDy=0;fontStyle=0;fontFamily=Times New Roman;strokeColor=#000000;" edge="1" parent="2IJ3CQFTHkG_83qPiviW-125" source="2IJ3CQFTHkG_83qPiviW-69" target="2IJ3CQFTHkG_83qPiviW-67">
          <mxGeometry relative="1" as="geometry" />
        </mxCell>
        <mxCell id="2IJ3CQFTHkG_83qPiviW-69" value="&lt;span&gt;FC&lt;/span&gt;" style="rounded=1;whiteSpace=wrap;html=1;fontStyle=0;fontFamily=Times New Roman;fillColor=#e1d5e7;strokeColor=#000000;rotation=0;" vertex="1" parent="2IJ3CQFTHkG_83qPiviW-125">
          <mxGeometry x="400.90909090909093" y="168.75" width="178.1818181818182" height="25" as="geometry" />
        </mxCell>
        <mxCell id="2IJ3CQFTHkG_83qPiviW-89" style="edgeStyle=orthogonalEdgeStyle;rounded=0;jumpSize=6;orthogonalLoop=1;jettySize=auto;html=1;exitX=0.5;exitY=0;exitDx=0;exitDy=0;entryX=0.5;entryY=1;entryDx=0;entryDy=0;fontStyle=0;fontFamily=Times New Roman;strokeColor=#000000;" edge="1" parent="2IJ3CQFTHkG_83qPiviW-125" source="2IJ3CQFTHkG_83qPiviW-63" target="2IJ3CQFTHkG_83qPiviW-69">
          <mxGeometry relative="1" as="geometry" />
        </mxCell>
        <mxCell id="2IJ3CQFTHkG_83qPiviW-70" style="edgeStyle=orthogonalEdgeStyle;rounded=0;orthogonalLoop=1;jettySize=auto;html=1;exitX=0.5;exitY=0;exitDx=0;exitDy=0;entryX=0.5;entryY=1;entryDx=0;entryDy=0;fontStyle=0;fontFamily=Times New Roman;strokeColor=#000000;" edge="1" parent="2IJ3CQFTHkG_83qPiviW-125" source="2IJ3CQFTHkG_83qPiviW-71" target="2IJ3CQFTHkG_83qPiviW-63">
          <mxGeometry relative="1" as="geometry" />
        </mxCell>
        <mxCell id="2IJ3CQFTHkG_83qPiviW-71" value="States" style="rounded=1;whiteSpace=wrap;html=1;fontStyle=0;fontFamily=Times New Roman;fillColor=#d5e8d4;strokeColor=#000000;rotation=0;" vertex="1" parent="2IJ3CQFTHkG_83qPiviW-125">
          <mxGeometry x="400.90909090909093" y="243.75" width="178.1818181818182" height="25" as="geometry" />
        </mxCell>
        <mxCell id="2IJ3CQFTHkG_83qPiviW-60" style="edgeStyle=orthogonalEdgeStyle;rounded=0;orthogonalLoop=1;jettySize=auto;html=1;exitX=0.5;exitY=0;exitDx=0;exitDy=0;entryX=0.5;entryY=1;entryDx=0;entryDy=0;fontStyle=0;fontFamily=Times New Roman;strokeColor=#000000;" edge="1" parent="2IJ3CQFTHkG_83qPiviW-125" source="2IJ3CQFTHkG_83qPiviW-61" target="2IJ3CQFTHkG_83qPiviW-71">
          <mxGeometry relative="1" as="geometry" />
        </mxCell>
        <mxCell id="2IJ3CQFTHkG_83qPiviW-90" value="L1" style="text;html=1;strokeColor=none;fillColor=none;align=center;verticalAlign=middle;whiteSpace=wrap;rounded=0;dashed=1;fontStyle=0;fontFamily=Times New Roman;rotation=0;" vertex="1" parent="2IJ3CQFTHkG_83qPiviW-125">
          <mxGeometry x="126.21212121212123" y="31.25" width="59.3939393939394" height="25" as="geometry" />
        </mxCell>
        <mxCell id="2IJ3CQFTHkG_83qPiviW-91" value="L2" style="text;html=1;strokeColor=none;fillColor=none;align=center;verticalAlign=middle;whiteSpace=wrap;rounded=0;dashed=1;fontStyle=0;fontFamily=Times New Roman;rotation=0;" vertex="1" parent="2IJ3CQFTHkG_83qPiviW-125">
          <mxGeometry x="390.51515151515156" y="31.25" width="59.3939393939394" height="25" as="geometry" />
        </mxCell>
        <mxCell id="2IJ3CQFTHkG_83qPiviW-115" value="Fall directions&lt;br&gt;(One-hot)" style="rounded=1;whiteSpace=wrap;html=1;fontStyle=0;fontFamily=Times New Roman;fillColor=#dae8fc;strokeColor=#000000;rotation=0;" vertex="1" parent="2IJ3CQFTHkG_83qPiviW-125">
          <mxGeometry x="237.5757575757576" y="-93.75" width="237.5757575757576" height="37.5" as="geometry" />
        </mxCell>
        <mxCell id="2IJ3CQFTHkG_83qPiviW-116" style="edgeStyle=orthogonalEdgeStyle;rounded=0;jumpSize=6;orthogonalLoop=1;jettySize=auto;html=1;exitX=0.5;exitY=0;exitDx=0;exitDy=0;entryX=0.5;entryY=1;entryDx=0;entryDy=0;strokeColor=#000000;fontFamily=Times New Roman;" edge="1" parent="2IJ3CQFTHkG_83qPiviW-125" source="2IJ3CQFTHkG_83qPiviW-21" target="2IJ3CQFTHkG_83qPiviW-115">
          <mxGeometry relative="1" as="geometry" />
        </mxCell>
      </root>
    </mxGraphModel>
  </diagram>
</mxfile>
